<mxfile host="app.diagrams.net" modified="2021-12-28T12:22:30.962Z" agent="5.0 (Windows NT 10.0; Win64; x64) AppleWebKit/537.36 (KHTML, like Gecko) Chrome/96.0.4664.110 Safari/537.36" etag="GKmawQCXj80bGt-HGa6f" version="16.0.3" type="github">
  <diagram id="GI_KuIWRNBVzg0BZ3mz7" name="Page-1">
    <mxGraphModel dx="768" dy="466" grid="1" gridSize="10" guides="1" tooltips="1" connect="1" arrows="1" fold="1" page="1" pageScale="1" pageWidth="827" pageHeight="1169" math="0" shadow="0">
      <root>
        <mxCell id="0" />
        <mxCell id="1" parent="0" />
        <mxCell id="4vv1ovevfYpmgYRERDvI-1" value="病人" style="rounded=0;whiteSpace=wrap;html=1;" vertex="1" parent="1">
          <mxGeometry x="60" y="90" width="120" height="60" as="geometry" />
        </mxCell>
        <mxCell id="4vv1ovevfYpmgYRERDvI-2" value="患者监护系统" style="ellipse;whiteSpace=wrap;html=1;" vertex="1" parent="1">
          <mxGeometry x="270" y="150" width="120" height="80" as="geometry" />
        </mxCell>
        <mxCell id="4vv1ovevfYpmgYRERDvI-3" value="" style="endArrow=classic;html=1;rounded=0;exitX=1;exitY=0.5;exitDx=0;exitDy=0;" edge="1" parent="1" source="4vv1ovevfYpmgYRERDvI-1" target="4vv1ovevfYpmgYRERDvI-2">
          <mxGeometry width="50" height="50" relative="1" as="geometry">
            <mxPoint x="190" y="130" as="sourcePoint" />
            <mxPoint x="240" y="100" as="targetPoint" />
          </mxGeometry>
        </mxCell>
        <mxCell id="4vv1ovevfYpmgYRERDvI-4" value="生理信号" style="text;html=1;align=center;verticalAlign=middle;resizable=0;points=[];autosize=1;strokeColor=none;fillColor=none;" vertex="1" parent="1">
          <mxGeometry x="220" y="110" width="60" height="20" as="geometry" />
        </mxCell>
        <mxCell id="4vv1ovevfYpmgYRERDvI-5" value="时钟" style="rounded=0;whiteSpace=wrap;html=1;labelBackgroundColor=#ffffff;" vertex="1" parent="1">
          <mxGeometry x="60" y="190" width="120" height="60" as="geometry" />
        </mxCell>
        <mxCell id="4vv1ovevfYpmgYRERDvI-6" value="" style="endArrow=classic;html=1;rounded=0;exitX=1;exitY=0.5;exitDx=0;exitDy=0;entryX=0.006;entryY=0.596;entryDx=0;entryDy=0;entryPerimeter=0;" edge="1" parent="1" source="4vv1ovevfYpmgYRERDvI-5" target="4vv1ovevfYpmgYRERDvI-2">
          <mxGeometry width="50" height="50" relative="1" as="geometry">
            <mxPoint x="200" y="250" as="sourcePoint" />
            <mxPoint x="250" y="200" as="targetPoint" />
          </mxGeometry>
        </mxCell>
        <mxCell id="4vv1ovevfYpmgYRERDvI-8" value="时间" style="text;html=1;align=center;verticalAlign=middle;resizable=0;points=[];autosize=1;strokeColor=none;fillColor=none;" vertex="1" parent="1">
          <mxGeometry x="200" y="180" width="40" height="20" as="geometry" />
        </mxCell>
        <mxCell id="4vv1ovevfYpmgYRERDvI-9" value="护士" style="rounded=0;whiteSpace=wrap;html=1;labelBackgroundColor=#ffffff;" vertex="1" parent="1">
          <mxGeometry x="60" y="280" width="120" height="60" as="geometry" />
        </mxCell>
        <mxCell id="4vv1ovevfYpmgYRERDvI-10" value="" style="endArrow=classic;html=1;rounded=0;exitX=1;exitY=0.5;exitDx=0;exitDy=0;entryX=0;entryY=1;entryDx=0;entryDy=0;" edge="1" parent="1" source="4vv1ovevfYpmgYRERDvI-9" target="4vv1ovevfYpmgYRERDvI-2">
          <mxGeometry width="50" height="50" relative="1" as="geometry">
            <mxPoint x="200" y="320" as="sourcePoint" />
            <mxPoint x="250" y="270" as="targetPoint" />
          </mxGeometry>
        </mxCell>
        <mxCell id="4vv1ovevfYpmgYRERDvI-11" value="要求报告" style="text;html=1;align=center;verticalAlign=middle;resizable=0;points=[];autosize=1;strokeColor=none;fillColor=none;" vertex="1" parent="1">
          <mxGeometry x="200" y="230" width="60" height="20" as="geometry" />
        </mxCell>
        <mxCell id="4vv1ovevfYpmgYRERDvI-12" value="" style="endArrow=classic;html=1;rounded=0;exitX=1;exitY=0.5;exitDx=0;exitDy=0;" edge="1" parent="1" source="4vv1ovevfYpmgYRERDvI-2">
          <mxGeometry width="50" height="50" relative="1" as="geometry">
            <mxPoint x="400" y="230" as="sourcePoint" />
            <mxPoint x="490" y="190" as="targetPoint" />
          </mxGeometry>
        </mxCell>
        <mxCell id="4vv1ovevfYpmgYRERDvI-13" value="护士" style="rounded=0;whiteSpace=wrap;html=1;labelBackgroundColor=#ffffff;" vertex="1" parent="1">
          <mxGeometry x="490" y="160" width="120" height="60" as="geometry" />
        </mxCell>
        <mxCell id="4vv1ovevfYpmgYRERDvI-14" value="警告信息" style="text;html=1;align=center;verticalAlign=middle;resizable=0;points=[];autosize=1;strokeColor=none;fillColor=none;" vertex="1" parent="1">
          <mxGeometry x="410" y="160" width="60" height="20" as="geometry" />
        </mxCell>
        <mxCell id="4vv1ovevfYpmgYRERDvI-15" value="病情报告" style="text;html=1;align=center;verticalAlign=middle;resizable=0;points=[];autosize=1;strokeColor=none;fillColor=none;" vertex="1" parent="1">
          <mxGeometry x="410" y="200" width="60" height="20" as="geometry" />
        </mxCell>
      </root>
    </mxGraphModel>
  </diagram>
</mxfile>
